JOYFUL NOISE XVID CAM INSPiRAL


Source = V+A JOYFUL NOISE...HOKNOWS INC - Thanks Guys 

 
http://www.imdb.com/title/tt1710396/


Complete name                            : JOYFUL NOISE CAM INSPiRAL
Format                                   : AVI
Format/Info                              : Audio Video Interleave
File size                                : 1.37 GiB
Duration                                 : 1h 20mn
Overall bit rate                         : 2 446 Kbps)
Writing library                          : VirtualDubMod build 2540/release

Video
ID                                       : 0
Format                                   : MPEG-4 Visual
Format profile                           : Advanced Simple@L5
Format settings, BVOP                    : 2
Format settings, QPel                    : No
Format settings, GMC                     : No warppoints
Format settings, Matrix                  : Default (H.263)
Muxing mode                              : Packed bitstream
Codec ID                                 : XVID
Codec ID/Hint                            : XviD
Duration                                 : 1h 20mn
Bit rate                                 : 898 Kbps
Width                                    : 720 pixels
Height                                   : 320 pixels
Display aspect ratio                     : 2.25:1
Frame rate                               : 29.970 fps
Color space                              : YUV
Chroma subsampling                       : 4:2:0
Bit depth                                : 8 bits
Scan type                                : Progressive
Compression mode                         : Lossy
Bits/(Pixel*Frame)                       : 0.130
Stream size                              : 516 MiB (37%)
Writing library                          : XviD 64

Audio
ID                                       : 1
Format                                   : PCM
Format settings, Endianness              : Little
Format settings, Sign                    : Signed
Codec ID                                 : 1
Duration                                 : 1h 20mn
Bit rate mode                            : Constant
Bit rate                                 : 1 536 Kbps
Channel(s)                               : 2 channels
Sampling rate                            : 48.0 KHz
Bit depth                                : 16 bits
Stream size                              : 882 MiB (63%)
Interleave, duration                     : 33 ms (1.00 video frame)
Interleave, preload duration             : 500 ms

Sample - Yes.

Notes - Nice cam again from our old friends HOKNOWS INC, Thanks for the vobs, 
Work done, cropped and re sized,smoothed the video out
as it really needed it, some slight movement but not to bad, might go to town on 
it and do another version, video would be a 7 audio would be a 7-8 good for a cam!
Thought we would leave this file as an avi rather than rar files, just for a change!


Poster:

 
http://i.imgur.com/U0OLe.jpg


Screens:

 
http://i.imgur.com/wY8KH.png

 
http://i.imgur.com/mWEUv.png

 
http://i.imgur.com/DYi3E.png


ENJOY!